<?xml version="1.0" encoding="UTF-8"?>
<svg width="518px" height="287px" viewBox="0 0 518 287" version="1.1" xmlns="http://www.w3.org/2000/svg" xmlns:xlink="http://www.w3.org/1999/xlink">
    <!-- Generator: Sketch 43.2 (39069) - http://www.bohemiancoding.com/sketch -->
    <title>Group</title>
    <desc>Created with Sketch.</desc>
    <defs>
        <filter x="-28.0%" y="-70.5%" width="156.1%" height="240.3%" filterUnits="objectBoundingBox" id="filter-1">
            <feOffset dx="0" dy="0" in="SourceAlpha" result="shadowOffsetOuter1"></feOffset>
            <feGaussianBlur stdDeviation="35.5" in="shadowOffsetOuter1" result="shadowBlurOuter1"></feGaussianBlur>
            <feColorMatrix values="0 0 0 0 1   0 0 0 0 1   0 0 0 0 1  0 0 0 0.5 0" type="matrix" in="shadowBlurOuter1" result="shadowMatrixOuter1"></feColorMatrix>
            <feMerge>
                <feMergeNode in="shadowMatrixOuter1"></feMergeNode>
                <feMergeNode in="SourceGraphic"></feMergeNode>
            </feMerge>
        </filter>
        <path d="M21.3612734,32.1408562 L50.2709544,32.1408562 C49.6520897,28.1642188 48.082849,24.850404 45.5631853,22.1993124 C43.0435216,19.5482207 39.7503263,18.2226948 35.6835007,18.2226948 C33.6500879,18.2226948 31.8156234,18.5982605 30.1800522,19.3494031 C28.5444811,20.1005457 27.1078523,21.1167823 25.8701227,22.3981432 C24.6323932,23.6795042 23.637804,25.1596748 22.8863254,26.8386995 C22.1348467,28.5177242 21.6265011,30.2850921 21.3612734,32.1408562 L21.3612734,32.1408562 Z M29.0528399,55.337792 C31.3514805,57.1051864 33.8932084,58.2760676 36.6780998,58.8504708 C39.4629913,59.424874 42.0931271,58.9609399 44.5685861,57.4586547 C45.4526787,56.9284364 46.292554,56.4203181 47.0882372,55.9342846 C47.8839205,55.4482511 48.6353879,54.9843171 49.3426619,54.5424685 L50.1383412,55.7354537 C48.2817469,57.0609995 46.4251805,58.4086176 44.5685861,59.7783483 C42.7119918,61.1480789 40.8554254,62.495697 38.9988311,63.8212428 C37.1422368,65.2351583 35.3298743,66.6711447 33.5616892,68.1292451 C31.7935042,69.5873455 30.0253457,71.1117003 28.2571606,72.7023553 C23.3946517,70.7582214 19.2836831,68.5490116 15.9241315,66.0746594 C12.5645799,63.6003072 9.7355263,60.3306766 7.43688573,56.2656694 C4.60778965,50.8751164 3.19326282,44.8660656 3.19326282,38.2383365 C3.19326282,33.643111 4.03313813,29.2025991 5.71291392,24.9166677 C7.39268972,20.6307362 9.69129581,16.8529873 12.6088011,13.5833077 C15.5263065,10.313628 18.9742156,7.72885242 22.952632,5.82890342 C26.9310483,3.92895443 31.1746288,3.02317837 35.6835007,3.11154809 C40.2807818,3.19991782 44.5464643,4.17197016 48.480676,6.0277343 C52.4148878,7.88349844 55.8406949,10.3357214 58.7582002,13.3844768 C61.6757056,16.4332321 63.9743117,19.9237838 65.6540875,23.8562363 C67.3338633,27.7886889 68.2621465,31.8757272 68.438965,36.1174738 C68.5273742,41.5080268 65.8751364,44.2032628 60.482172,44.2032628 L21.759113,44.2032628 C22.11275,46.5008756 23.0410333,48.6217171 24.5439906,50.5658509 C26.0469479,52.5099848 27.5498826,54.1006159 29.0528399,55.337792 L29.0528399,55.337792 Z" id="path-2"></path>
        <filter x="-10.7%" y="-7.2%" width="121.5%" height="120.1%" filterUnits="objectBoundingBox" id="filter-3">
            <feOffset dx="0" dy="2" in="SourceAlpha" result="shadowOffsetOuter1"></feOffset>
            <feGaussianBlur stdDeviation="2" in="shadowOffsetOuter1" result="shadowBlurOuter1"></feGaussianBlur>
            <feColorMatrix values="0 0 0 0 0   0 0 0 0 0   0 0 0 0 0  0 0 0 0.5 0" type="matrix" in="shadowBlurOuter1"></feColorMatrix>
        </filter>
        <filter x="-9.2%" y="-5.7%" width="118.4%" height="117.2%" filterUnits="objectBoundingBox" id="filter-4">
            <feGaussianBlur stdDeviation="1.5" in="SourceAlpha" result="shadowBlurInner1"></feGaussianBlur>
            <feOffset dx="0" dy="1" in="shadowBlurInner1" result="shadowOffsetInner1"></feOffset>
            <feComposite in="shadowOffsetInner1" in2="SourceAlpha" operator="arithmetic" k2="-1" k3="1" result="shadowInnerInner1"></feComposite>
            <feColorMatrix values="0 0 0 0 0   0 0 0 0 0   0 0 0 0 0  0 0 0 0.5 0" type="matrix" in="shadowInnerInner1"></feColorMatrix>
        </filter>
        <path d="M59.9385577,57.4185826 C59.7617392,56.0930368 59.3418016,54.9221556 58.6787322,53.9059038 C58.0156628,52.889652 56.9768697,52.3815337 55.5623216,52.3815337 C54.6782291,52.3815337 53.9046597,52.668731 53.2415904,53.2431342 C52.578521,53.8175374 52.0259714,54.3256557 51.5839252,54.7675043 L50.6556326,53.0443033 L68.260294,38.9607064 C70.2937069,39.9327733 71.2990797,40.1423811 73.3324925,41.6446663 C75.3659054,43.1469516 76.7804322,44.9143195 77.5761154,46.9468231 C79.2558912,44.4724709 81.1566617,42.3737215 83.2784837,40.6505119 C85.4003058,38.9273024 88.0083396,38.0657105 91.1026635,38.0657105 C94.0201688,38.0657105 96.230367,39.059855 97.7333242,41.0481737 C99.2362815,43.0364924 99.9877489,45.2677944 99.9877489,47.7421466 C99.9877489,50.4816079 98.8384459,52.3815284 96.5398053,53.4419651 C93.8875277,54.6791412 91.2794939,55.8058382 88.7156256,56.82209 C86.1517573,57.8383418 83.7647432,59.1859598 81.5545119,60.8649845 C79.2558714,62.7207486 78.1065683,65.3276163 78.1065683,68.6856657 L78.1065683,97.7149738 C78.1065683,100.454435 77.288795,102.81829 75.6532238,104.806608 C74.0176526,106.794927 71.8295565,107.789072 69.0888696,107.789072 C66.1713643,107.789072 63.9169622,106.750743 62.3255956,104.674055 C60.7342291,102.597366 59.9385577,100.277696 59.9385577,97.7149738 L59.9385577,57.4185826 Z M117.011585,72.9273911 C117.011585,75.1366341 117.321013,77.3237519 117.939877,79.4888101 C118.558742,81.6538682 119.464924,83.5979729 120.658448,85.3211825 C121.851973,87.044392 123.354908,88.4582863 125.167298,89.5629079 C126.979687,90.6675294 129.035172,91.2198318 131.333812,91.2198318 C133.720862,91.2198318 135.798448,90.6233452 137.566633,89.4303539 C139.334818,88.2373627 140.793549,86.7571921 141.94287,84.9897977 C143.09219,83.2224033 143.954167,81.2562065 144.528827,79.0911483 C145.103487,76.9260901 145.390813,74.8715249 145.390813,72.9273911 C145.390813,69.9228206 144.882468,67.0729398 143.865761,64.3776633 C142.849055,61.6823869 141.324018,59.3627165 139.290605,57.4185826 C137.080374,55.4744488 134.428136,54.5023964 131.333812,54.5023964 C128.946762,54.5023964 126.847074,55.076791 125.034685,56.2255974 C123.222295,57.3744037 121.71936,58.8545744 120.525835,60.6661536 C119.33231,62.4777329 118.448231,64.4660218 117.873571,66.63108 C117.298911,68.7961381 117.011585,70.8948875 117.011585,72.9273911 L117.011585,72.9273911 Z M163.426211,50.5257789 L163.426211,89.8942927 C163.603029,90.9547293 164.022967,91.8605054 164.686036,92.611648 C165.349105,93.3627906 166.166879,93.7383563 167.139381,93.7383563 C168.023473,93.7383563 168.819144,93.4732511 169.526418,92.9430328 C170.233692,92.4128145 170.940956,91.9709725 171.64823,91.6174936 L172.178683,92.8104789 L155.071578,107.126302 C151.977254,105.182168 149.722852,103.149695 148.308304,101.028822 C147.954667,100.586973 147.667341,100.145131 147.446318,99.7032826 C147.225295,99.261434 147.026377,98.819592 146.849559,98.3777434 C144.462509,101.205575 141.788169,103.481061 138.826459,105.20427 C135.864749,106.92748 132.52735,107.789072 128.814161,107.789072 C124.040062,107.789072 119.796481,106.750743 116.083292,104.674055 C112.370104,102.597366 109.253724,99.880038 106.734061,96.5219886 C104.214397,93.1639392 102.291525,89.4303745 100.965386,85.3211825 C99.6392471,81.2119904 98.9761876,77.080768 98.9761876,72.9273911 C98.9761876,68.6856445 99.6834511,64.4660536 101.097999,60.2684919 C102.512547,56.0709301 104.523827,52.3152733 107.1319,49.0014088 C109.739973,45.6875443 112.878455,43.0144003 116.547439,40.9818967 C120.216423,38.9493932 124.305289,37.9331566 128.814161,37.9331566 C132.350531,37.9331566 135.643727,38.6401038 138.693846,40.0540193 C141.743965,41.4679348 144.197285,43.5445921 146.053879,46.2840535 C146.495926,43.9864407 147.512617,42.1527965 149.103983,40.7830659 C150.69535,39.4133352 152.59612,38.7284801 154.806351,38.7284801 C156.662946,38.7284801 158.143779,39.0598616 159.248894,39.7226345 C160.35401,40.3854074 161.215987,41.2911835 161.834852,42.4399898 C162.453717,43.5887962 162.873654,44.8701379 163.094677,46.2840535 C163.315701,47.697969 163.426211,49.1118633 163.426211,50.5257789 L163.426211,50.5257789 Z M271.157486,90.1594005 C271.334305,91.3082069 271.710038,92.3244434 272.284699,93.2081406 C272.859359,94.0918378 273.76554,94.5336798 275.003269,94.5336798 C275.887362,94.5336798 276.705135,94.2906667 277.456614,93.8046333 C278.208093,93.3185998 278.893254,92.8546657 279.512119,92.4128171 L280.175185,93.6058024 L262.935467,108.054179 C259.929552,106.110046 257.56464,103.94502 255.84066,101.559037 C254.116679,99.173055 253.254702,95.7266876 253.254702,91.2198318 L253.254702,66.2996952 C253.077884,62.9416458 252.105396,60.0475808 250.337211,57.6174135 C248.569026,55.1872462 246.005196,53.9721807 242.645645,53.9721807 C240.87746,53.9721807 239.330321,54.3256543 238.004182,55.0326121 C236.678043,55.7395699 235.595046,56.667438 234.755158,57.8162444 C233.915271,58.9650508 233.274313,60.2905767 232.832267,61.7928619 C232.390221,63.2951472 232.124997,64.7974099 232.036588,66.2996952 L232.036588,97.5824199 C231.859769,100.410251 231.019894,102.796198 229.516936,104.740332 C228.013979,106.684465 225.847985,107.656518 223.018889,107.656518 C220.189793,107.656518 218.001697,106.618189 216.454535,104.541501 C214.907373,102.464812 214.133803,100.145142 214.133803,97.5824199 L214.133803,66.2996952 C213.956985,62.5881669 212.984498,59.6278256 211.216313,57.4185826 C209.359718,55.1209699 206.795888,53.9721807 203.524746,53.9721807 C199.811558,53.9721807 197.15932,55.1209699 195.567953,57.4185826 C193.799768,59.7161954 192.915689,62.6765366 192.915689,66.2996952 L192.915689,97.5824199 C192.73887,100.410251 191.898995,102.796198 190.396038,104.740332 C188.89308,106.684465 186.727086,107.656518 183.89799,107.656518 C181.068894,107.656518 178.880798,106.618189 177.333636,104.541501 C175.786474,102.464812 175.012905,100.145142 175.012905,97.5824199 L175.012905,58.2139061 C174.836086,56.7116209 174.460353,55.3419108 173.885692,54.1047347 C173.311032,52.8675586 172.228035,52.2489798 170.636669,52.2489798 C169.840985,52.2489798 169.089518,52.514085 168.382244,53.0443033 C167.67497,53.5745216 167.100318,54.104732 166.658272,54.6349503 L165.72998,52.9117494 L182.174018,37.9331566 C184.207431,38.9935933 186.130304,40.1865666 187.942693,41.5121124 C189.755083,42.8376582 191.147508,44.4724735 192.12001,46.4166074 L192.252623,46.4166074 C196.761495,41.3795333 202.331194,38.861034 208.961888,38.861034 C216.476674,38.861034 222.665229,41.9097437 227.527738,48.0072544 C230.180016,45.2677931 233.141681,43.0806753 236.412824,41.4458354 C239.683966,39.8109956 243.087671,38.9494038 246.624041,38.861034 C250.602458,38.7726643 254.094571,39.3470589 257.100485,40.584235 C260.1064,41.8214111 262.648128,43.5225027 264.725745,45.6875608 C266.803363,47.852619 268.372603,50.4373946 269.433514,53.4419651 C270.494425,56.4465356 271.069077,59.671982 271.157486,63.1184011 L271.157486,90.1594005 Z M297.331634,72.9273911 C297.331634,75.1366341 297.641062,77.3237519 298.259927,79.4888101 C298.878791,81.6538682 299.784973,83.5979729 300.978498,85.3211825 C302.172022,87.044392 303.674957,88.4582863 305.487347,89.5629079 C307.299737,90.6675294 309.355221,91.2198318 311.653861,91.2198318 C314.040911,91.2198318 316.118498,90.6233452 317.886683,89.4303539 C319.654868,88.2373627 321.113598,86.7571921 322.262919,84.9897977 C323.412239,83.2224033 324.274216,81.2562065 324.848876,79.0911483 C325.423537,76.9260901 325.710862,74.8715249 325.710862,72.9273911 C325.710862,69.9228206 325.202517,67.0729398 324.18581,64.3776633 C323.169104,61.6823869 321.644067,59.3627165 319.610654,57.4185826 C317.400423,55.4744488 314.748185,54.5023964 311.653861,54.5023964 C309.266812,54.5023964 307.167123,55.076791 305.354734,56.2255974 C303.542344,57.3744037 302.039409,58.8545744 300.845884,60.6661536 C299.652359,62.4777329 298.76828,64.4660218 298.19362,66.63108 C297.61896,68.7961381 297.331634,70.8948875 297.331634,72.9273911 L297.331634,72.9273911 Z M343.74626,50.5257789 L343.74626,89.8942927 C343.923078,90.9547293 344.343016,91.8605054 345.006085,92.611648 C345.669155,93.3627906 346.486928,93.7383563 347.45943,93.7383563 C348.343522,93.7383563 349.139194,93.4732511 349.846468,92.9430328 C350.553742,92.4128145 351.261005,91.9709725 351.968279,91.6174936 L352.498732,92.8104789 L335.391627,107.126302 C332.297303,105.182168 330.042901,103.149695 328.628353,101.028822 C328.274716,100.586973 327.98739,100.145131 327.766367,99.7032826 C327.545344,99.261434 327.346426,98.819592 327.169608,98.3777434 C324.782558,101.205575 322.108218,103.481061 319.146508,105.20427 C316.184798,106.92748 312.847399,107.789072 309.13421,107.789072 C304.360111,107.789072 300.11653,106.750743 296.403342,104.674055 C292.690153,102.597366 289.573774,99.880038 287.05411,96.5219886 C284.534446,93.1639392 282.611574,89.4303745 281.285435,85.3211825 C279.959296,81.2119904 279.296237,77.080768 279.296237,72.9273911 C279.296237,68.6856445 280.0035,64.4660536 281.418048,60.2684919 C282.832596,56.0709301 284.843877,52.3152733 287.45195,49.0014088 C290.060023,45.6875443 293.198504,43.0144003 296.867488,40.9818967 C300.536472,38.9493932 304.625338,37.9331566 309.13421,37.9331566 C312.67058,37.9331566 315.963776,38.6401038 319.013895,40.0540193 C322.064014,41.4679348 324.517334,43.5445921 326.373928,46.2840535 C326.815975,43.9864407 327.832666,42.1527965 329.424032,40.7830659 C331.015399,39.4133352 332.916169,38.7284801 335.126401,38.7284801 C336.982995,38.7284801 338.463828,39.0598616 339.568943,39.7226345 C340.674059,40.3854074 341.536036,41.2911835 342.154901,42.4399898 C342.773766,43.5887962 343.193703,44.8701379 343.414727,46.2840535 C343.63575,47.697969 343.74626,49.1118633 343.74626,50.5257789 L343.74626,50.5257789 Z M364.615879,30.6426911 C364.615879,28.3450783 364.262247,25.8707633 363.554973,23.2196717 C362.936109,21.1871681 362.162539,19.0442345 361.234242,16.7908066 C360.305945,14.5373787 359.001928,12.8362871 357.322152,11.6874807 L358.648284,10.3619416 C360.151242,11.8642268 361.344749,13.5211342 362.228841,15.3327135 C363.112934,17.1442928 363.908605,19.0221212 364.615879,20.966255 L364.748492,20.966255 C365.367357,17.7849451 366.693476,15.1780774 368.726889,13.1455738 C370.760301,11.1130703 373.147316,9.50034705 375.888002,8.30735582 C378.628689,7.11436459 381.524049,6.29695694 384.574168,5.85510833 C387.624287,5.41325973 390.475443,5.23652294 393.12772,5.32489266 L393.12772,7.44575535 C389.149304,7.44575535 386.364454,8.63872869 384.773088,11.0247112 C383.181721,13.4106936 382.38605,16.7245084 382.38605,20.966255 L382.38605,97.8475278 C382.297641,100.586989 381.479867,102.906659 379.932705,104.806608 C378.385544,106.706557 376.241651,107.656518 373.500964,107.656518 C370.583459,107.656518 368.417465,106.662373 367.002917,104.674055 C365.588369,102.685736 364.792698,100.41025 364.615879,97.8475278 L364.615879,30.6426911 Z" id="path-5"></path>
        <filter x="-2.0%" y="-4.9%" width="104.1%" height="113.6%" filterUnits="objectBoundingBox" id="filter-6">
            <feOffset dx="0" dy="2" in="SourceAlpha" result="shadowOffsetOuter1"></feOffset>
            <feGaussianBlur stdDeviation="2" in="shadowOffsetOuter1" result="shadowBlurOuter1"></feGaussianBlur>
            <feColorMatrix values="0 0 0 0 1   0 0 0 0 1   0 0 0 0 1  0 0 0 0.5 0" type="matrix" in="shadowBlurOuter1"></feColorMatrix>
        </filter>
        <filter x="-2.2%" y="-5.4%" width="104.4%" height="114.6%" filterUnits="objectBoundingBox" id="filter-7">
            <feGaussianBlur stdDeviation="1.5" in="SourceAlpha" result="shadowBlurInner1"></feGaussianBlur>
            <feOffset dx="0" dy="4" in="shadowBlurInner1" result="shadowOffsetInner1"></feOffset>
            <feComposite in="shadowOffsetInner1" in2="SourceAlpha" operator="arithmetic" k2="-1" k3="1" result="shadowInnerInner1"></feComposite>
            <feColorMatrix values="0 0 0 0 0   0 0 0 0 0   0 0 0 0 0  0 0 0 0.5 0" type="matrix" in="shadowInnerInner1"></feColorMatrix>
        </filter>
        <polygon id="path-8" points="0 35.7315817 305.942502 35.7315817 305.942502 -0.000176610114 0 -0.000176610114"></polygon>
    </defs>
    <g id="Page-1" stroke="none" stroke-width="1" fill="none" fill-rule="evenodd">
        <g id="icon" transform="translate(-482.000000, -217.000000)">
            <g id="Group" filter="url(#filter-1)" transform="translate(547.000000, 281.000000)">
                <g id="e" transform="translate(35.817183, 37.904006) rotate(-5.000000) translate(-35.817183, -37.904006) ">
                    <use fill="black" fill-opacity="1" filter="url(#filter-3)" xlink:href="#path-2"></use>
                    <use fill="#3F51B5" fill-rule="evenodd" xlink:href="#path-2"></use>
                    <use fill="black" fill-opacity="1" filter="url(#filter-4)" xlink:href="#path-2"></use>
                </g>
                <g id="ramal">
                    <use fill="black" fill-opacity="1" filter="url(#filter-6)" xlink:href="#path-5"></use>
                    <use fill="#FF9800" fill-rule="evenodd" xlink:href="#path-5"></use>
                    <use fill="black" fill-opacity="1" filter="url(#filter-7)" xlink:href="#path-5"></use>
                </g>
                <g id="Page-1" transform="translate(224.215821, 135.269965) scale(1, -1) translate(-224.215821, -135.269965) translate(71.215821, 117.269965)">
                    <mask id="mask-9" fill="white">
                        <use xlink:href="#path-8"></use>
                    </mask>
                    <g id="Clip-2"></g>
                    <path d="M0,35.7315817 C5.41093956,32.0086405 11.254683,28.9232618 17.1803565,26.0392186 C23.1167164,23.1569416 29.2347472,20.6632068 35.4097727,18.2913329 C47.8203806,13.734792 60.571176,10.0047864 73.5410449,7.23024147 C99.484345,1.66702287 126.152547,-0.538837459 152.6747,0.109321661 C179.20754,0.75748078 205.613922,4.27908646 231.338149,10.2626371 C257.041002,16.3168318 282.140067,24.6687242 305.942502,35.7315817 C280.424882,29.5325667 255.040842,23.7998024 229.43773,19.7483664 C203.859552,15.6315846 178.128202,13.0513108 152.364791,12.4013856 C126.606724,11.7602909 100.813035,13.0583752 75.2722606,16.7124385 C62.5089976,18.5615464 49.7760131,20.8751389 37.2104507,24.0258633 C30.9018438,25.5164527 24.6626992,27.2913843 18.4413654,29.1917092 C15.329808,30.1383394 12.2396237,31.1591459 9.16546905,32.2488303 C6.07884685,33.3067248 3.02606528,34.4635211 0,35.7315817" id="Fill-1" fill="#F8931E" mask="url(#mask-9)"></path>
                </g>
            </g>
        </g>
    </g>
</svg>